<svg width="799" height="173" viewBox="0 0 799 173" fill="none" xmlns="http://www.w3.org/2000/svg">
	<title>Independence Pet Group Logo (IPG)</title>
	<desc>IPG Brand Identity</desc>
	<path
		d="M15.9001 110.7C15.4001 110.3 15.2 109.8 15.2 109.3C15.2 107.9 16 106.9 17.6 106.4C20.3001 105.7 22.1 105 23.1 104.3C24.1 103.6 24.5001 102.5 24.5001 101.1V70.1C24.5001 66.8 24 64.6 23.1 63.3C22.1 62 20.6001 61.2 18.4001 60.9C17.8001 60.8 17.4 60.5 17.1 60C16.8 59.5 16.7 58.9001 16.7 58.2001C16.7 57.5001 16.9 57 17.2 56.5C17.5 56 17.9001 55.7 18.4001 55.6C22.8001 54.7 26.7 53.6 30.2 52.3C33.6 51 37.6001 49.3 42.1001 47.3C43.8001 46.5 44.9001 46.2001 45.3001 46.2001C46.0001 46.2001 46.5001 46.4 46.8001 46.8C47.1001 47.2 47.3001 47.7001 47.3001 48.2001L46.6001 54.5C45.8001 61 45.5001 66 45.5001 69.6V101C45.5001 102.2 46 103.2 46.9 104C47.9 104.8 48.7 105.6 51.4 106.4C52.3 106.7 52.9001 107 53.3001 107.4C53.7001 107.8 53.9 108.4 53.9 109.1C53.9 110.4 53.2001 111.1 51.7001 111.1C49.9001 111.1 47.7001 111 43.3001 110.8C39.1001 110.6 36.2001 110.5 34.7001 110.5C33.1001 110.5 30.3001 110.6 26.5001 110.8C23.4001 111.1 20.4001 111.2 17.5001 111.2C16.9001 111.3 16.4001 111.1 15.9001 110.7ZM24.5001 40.4C22.1001 38 20.9001 35.2 20.9001 31.9C20.9001 28.4 22.1001 25.4 24.4001 23C26.7001 20.6 29.6 19.4 32.9 19.4C36.4 19.4 39.4001 20.6 41.8001 23C44.2001 25.4 45.4 28.4 45.4 31.9C45.4 35.3 44.2001 38.1 41.8001 40.4C39.4001 42.7 36.4 43.9 32.9 43.9C29.8 44 26.9001 42.8 24.5001 40.4ZM59.2001 110.6C58.6001 110.2 58.3001 109.7 58.3001 109.1C58.3001 107.9 59.4001 106.9 61.6001 106.1C63.4001 105.5 64.8001 104.9 65.6001 104.2C66.5001 103.5 66.9 102.3 66.9 100.6V67.3C66.9 62.8 65.5001 60.3 62.6001 59.8C62.2001 59.7 61.9001 59.4 61.5001 58.9C61.2001 58.4 61.0001 57.8 61.0001 57C61.0001 55.6 61.5 54.7 62.4 54.4C66 53.5 70.0001 52.5001 74.2001 51.2001C78.4001 49.9001 81.9001 48.6 84.5001 47.3C84.7001 47.2 85.1001 47 85.8001 46.6C86.5001 46.2 87 46 87.4 46C88.4 46 88.8001 46.6 88.8001 47.9L88.5001 50.9C88.2001 54.1 88.1001 55.7 88.1001 55.9C88.1001 57.1 88.2 57.9 88.4 58.1C92 54.8 95.4001 52.3 98.6001 50.6C101.8 49 105.4 48.2001 109.5 48.2001C114.8 48.2001 119.1 50.1 122.4 53.8C125.7 57.5 127.4 62.6 127.4 68.9V100.8C127.4 102.5 127.8 103.7 128.6 104.3C129.4 104.9 130.8 105.5 132.7 106.1C134.6 106.8 135.6 107.8 135.6 109.1C135.6 109.7 135.3 110.2 134.8 110.6C134.3 111 133.7 111.2 133.1 111.2C130.1 111.2 127.3 111.1 124.5 110.8C121.1 110.6 118.6 110.5 117 110.5C115.4 110.5 112.9 110.6 109.7 110.8C107 111.1 104.2 111.2 101.2 111.2C100.6 111.2 100.1 111 99.6001 110.6C99.1001 110.2 98.9 109.7 98.9 109.1C98.9 107.8 99.8001 106.8 101.6 106.1C103.4 105.5 104.7 104.9 105.4 104.3C106.1 103.7 106.5 102.5 106.5 100.8V72.5C106.5 69 105.7 66.2001 104.2 64.2001C102.7 62.2001 100.7 61.2001 98.2001 61.2001C96.5001 61.2001 94.9001 61.5 93.5001 62C92.1001 62.5 90.5001 63.4 88.8001 64.5C88.0001 65 87.7001 65.8 87.7001 67.1V100.8C87.7001 102.5 88.1001 103.7 88.8001 104.2C89.5001 104.8 90.8001 105.4 92.6001 106.1C94.4001 106.8 95.3001 107.8 95.3001 109.1C95.3001 109.7 95.1001 110.2 94.6001 110.6C94.1001 111 93.6001 111.2 93.0001 111.2C90.1001 111.2 87.4001 111.1 84.8001 110.8C81.5001 110.6 79.2001 110.5 77.6001 110.5C76.0001 110.5 73.5001 110.6 69.8001 110.8C66.9001 111.1 64.0001 111.2 61.0001 111.2C60.4001 111.3 59.8001 111.1 59.2001 110.6ZM237.5 67.8C239.8 67.8 241.5 67.8001 242.6 67.7001C243.7 67.6001 244.7 67.4 245.5 67.1C245.9 67 246.2 66.5001 246.6 65.7001C246.9 64.8001 247.1 63.9 247.1 62.8C247.1 60.3 246.3 58.3001 244.7 56.7001C243.1 55.1001 241.1 54.3 238.6 54.3C235.7 54.3 233.1 55.5 230.8 57.9C228.5 60.3 227.4 62.9001 227.6 65.7001C227.6 66.4001 227.8 66.9 228.2 67.3C228.6 67.7 229.1 67.9 229.8 67.9H237.5V67.8ZM221.8 108.7C217.6 105.9 214.4 102.1 212 97.4C209.6 92.6 208.4 87.3 208.4 81.5C208.4 75.5 209.8 69.9 212.7 64.8C215.6 59.7 219.5 55.7001 224.4 52.7001C229.3 49.7001 234.7 48.3 240.6 48.3C244.6 48.3 248.3 49.2 251.7 51C255.1 52.8 257.8 55.3 259.8 58.3C261.8 61.4 262.8 64.8 262.8 68.5C262.8 70.4 262.4 71.8001 261.7 72.7001C261 73.6001 259.9 74.1 258.3 74.1H229.9C228.6 74.1 227.6 74.5001 227 75.2001C226.4 76.0001 226.1 77.3 226.1 79.1C226.1 84.4 227.8 88.8 231.1 92.3C234.4 95.8 238.8 97.6 244 97.6C246.6 97.6 249 97.1 251.3 96.1C253.6 95.1 256.1 93.6001 258.8 91.7001C259.7 91.0001 260.3 90.7001 260.8 90.7001C261.9 90.7001 262.4 91.3 262.4 92.6C262.4 93.5 262.1 94.8 261.5 96.5C260.1 100.8 257 104.6 252.4 107.9C247.8 111.2 242.2 112.9 235.7 112.9C230.5 112.8 225.9 111.5 221.8 108.7ZM310.4 104C312.3 102.4 314 99.9 315.4 96.4C316.8 92.9 317.6 88.4 317.6 83C317.6 74 316.2 67.9 313.5 64.8C310.8 61.7 307.8 60.1 304.7 60.1C302.3 60.1 299.9 60.9 297.6 62.4C295.3 63.9 294.1 65.3 294.1 66.6L294 90.7001C294 92.8001 294.4 95.1 295.3 97.6C296.2 100.1 297.4 102.2 299.1 103.9C300.8 105.6 302.9 106.5 305.3 106.5C306.8 106.4 308.5 105.6 310.4 104ZM265.5 141.3C264.9 140.9 264.6 140.4 264.6 139.7C264.6 138.4 265.7 137.4 267.9 136.7C270 136 271.4 135.3 272.1 134.6C272.8 133.9 273.2 132.8 273.2 131.2V69.2001C273.2 67.3001 272.6 65.6 271.5 64.1C270.4 62.6 269 61.7 267.3 61.4C266.6 61.2 266.2 60.9 265.9 60.5C265.6 60.1 265.5 59.5 265.5 58.6C265.5 57.2 266.1 56.3 267.2 56C270.7 55.2 274.5 54.2 278.6 52.8C282.7 51.5 286 50.1 288.7 48.8C288.9 48.7 289.3 48.5 290 48.1C290.7 47.7 291.2 47.5 291.6 47.5C292.6 47.5 293 48.1 293 49.4C293 49.4 292.3 56.6001 292.3 57.7001C292.3 58.7001 292.4 59.3 292.7 59.5C294.2 60.1 297.7 55.2 302.3 52.8C306.9 50.4 311.2 49.2001 315.2 49.2001C320.1 49.2001 324.4 50.5001 328.1 53.2001C331.8 55.9001 334.7 59.4 336.6 63.8C338.6 68.2 339.5 72.7 339.5 77.5C339.5 83.4 338 89.2001 335 94.7001C332 100.3 327.9 104.7 322.8 108.2C317.7 111.6 312.1 113.4 306.1 113.4C304.6 113.4 302.7 113.1 300.4 112.6C298.1 112.1 296.1 111.4 294.4 110.7C294 110.7 293.8 111.2 293.8 112.3V129.5C293.8 131.5 294.4 133 295.5 133.9C296.6 134.8 298.5 135.8 301.3 136.6C303.4 137.2 304.5 138.1 304.5 139.5C304.5 140.1 304.3 140.6 303.9 141C303.5 141.4 302.9 141.6 302.2 141.6C298.9 141.6 295.7 141.5 292.4 141.2C288.4 141 285.6 140.9 283.9 140.9C282.4 140.9 279.8 141 276.1 141.2C273.2 141.5 270.3 141.6 267.3 141.6C266.7 141.8 266.1 141.7 265.5 141.3ZM373.7 67.8C376 67.8 377.7 67.8001 378.8 67.7001C379.9 67.6001 380.9 67.4 381.7 67.1C382.1 67 382.4 66.5001 382.8 65.7001C383.1 64.8001 383.3 63.9 383.3 62.8C383.3 60.3 382.5 58.3001 380.9 56.7001C379.3 55.1001 377.3 54.3 374.8 54.3C371.9 54.3 369.3 55.5 367 57.9C364.7 60.3 363.6 62.9001 363.8 65.7001C363.8 66.4001 364 66.9 364.4 67.3C364.8 67.7 365.3 67.9 366 67.9H373.7V67.8ZM357.9 108.7C353.7 105.9 350.5 102.1 348.1 97.4C345.7 92.6 344.5 87.3 344.5 81.5C344.5 75.5 345.9 69.9 348.8 64.8C351.7 59.7 355.6 55.7001 360.5 52.7001C365.4 49.7001 370.8 48.3 376.7 48.3C380.7 48.3 384.4 49.2 387.8 51C391.2 52.8 393.9 55.3 395.9 58.3C397.9 61.4 398.9 64.8 398.9 68.5C398.9 70.4 398.5 71.8001 397.8 72.7001C397.1 73.6001 396 74.1 394.4 74.1H366C364.7 74.1 363.7 74.5001 363.1 75.2001C362.5 76.0001 362.2 77.3 362.2 79.1C362.2 84.4 363.9 88.8 367.2 92.3C370.5 95.8 374.9 97.6 380.1 97.6C382.7 97.6 385.1 97.1 387.4 96.1C389.7 95.1 392.2 93.6001 394.9 91.7001C395.8 91.0001 396.4 90.7001 396.9 90.7001C398 90.7001 398.5 91.3 398.5 92.6C398.5 93.5 398.2 94.8 397.6 96.5C396.2 100.8 393.1 104.6 388.5 107.9C383.9 111.2 378.3 112.9 371.8 112.9C366.7 112.8 362.1 111.5 357.9 108.7ZM401 110.6C400.4 110.2 400.1 109.7 400.1 109.1C400.1 107.9 401.2 106.9 403.4 106.1C405.2 105.5 406.6 104.9 407.4 104.2C408.3 103.5 408.7 102.3 408.7 100.6V67.3C408.7 62.8 407.3 60.3 404.4 59.8C404 59.7 403.7 59.4 403.3 58.9C403 58.4 402.8 57.8 402.8 57C402.8 55.6 403.3 54.7 404.2 54.4C407.8 53.5 411.8 52.5001 416 51.2001C420.2 49.9001 423.7 48.6 426.3 47.3C426.5 47.2 426.9 47 427.6 46.6C428.3 46.2 428.8 46 429.2 46C430.2 46 430.6 46.6 430.6 47.9L430.3 50.9C430 54.1 429.9 55.7 429.9 55.9C429.9 57.1 430 57.9 430.2 58.1C433.8 54.8 437.2 52.3 440.4 50.6C443.6 49 447.2 48.2001 451.3 48.2001C456.6 48.2001 460.9 50.1 464.2 53.8C467.5 57.5 469.2 62.6 469.2 68.9V100.8C469.2 102.5 469.6 103.7 470.4 104.3C471.2 104.9 472.6 105.5 474.5 106.1C476.4 106.8 477.4 107.8 477.4 109.1C477.4 109.7 477.1 110.2 476.6 110.6C476.1 111 475.5 111.2 474.9 111.2C471.9 111.2 469.1 111.1 466.3 110.8C462.9 110.6 460.4 110.5 458.8 110.5C457.2 110.5 454.7 110.6 451.5 110.8C448.8 111.1 446 111.2 443 111.2C442.4 111.2 441.9 111 441.4 110.6C440.9 110.2 440.7 109.7 440.7 109.1C440.7 107.8 441.6 106.8 443.4 106.1C445.2 105.5 446.5 104.9 447.2 104.3C447.9 103.7 448.3 102.5 448.3 100.8V72.5C448.3 69 447.5 66.2001 446 64.2001C444.5 62.2001 442.5 61.2001 440 61.2001C438.3 61.2001 436.7 61.5 435.3 62C433.9 62.5 432.3 63.4 430.6 64.5C429.8 65 429.5 65.8 429.5 67.1V100.8C429.5 102.5 429.9 103.7 430.6 104.2C431.3 104.8 432.6 105.4 434.4 106.1C436.2 106.8 437.1 107.8 437.1 109.1C437.1 109.7 436.9 110.2 436.4 110.6C435.9 111 435.4 111.2 434.8 111.2C431.9 111.2 429.2 111.1 426.6 110.8C423.3 110.6 421 110.5 419.4 110.5C417.9 110.5 415.3 110.6 411.6 110.8C408.7 111.1 405.8 111.2 402.8 111.2C402.2 111.3 401.6 111.1 401 110.6ZM516.9 101.5C517 101.5 517.2 101.4 517.3 101.4C519.9 100.5 521.6 98.0001 521.6 95.2001L521.5 65.7001C521.5 64.4001 520.9 62.9 519.6 61.3C518.4 59.7 516.8 58.4 514.9 57.4C513 56.3 511.3 55.8 509.8 55.8C506.4 55.8 503.5 58 501.3 62.3C499.1 66.6 497.9 72.1 497.9 78.8C497.9 85.8 499.2 91.5 501.8 96C504.4 100.4 507.7 102.7 511.7 102.7C513.1 102.5 514.9 102.2 516.9 101.5ZM550.9 101.9C551.4 101.9 551.7 102 551.9 102.2C552.1 102.4 552.2 102.8 552.2 103.5C552.2 104.3 551.9 105.1 551.3 106C550.7 106.9 550.1 107.4 549.6 107.4C541.4 108.4 533.8 110.1 526.8 112.7C525.7 113.3 524.8 113.6 524.2 113.6C523.9 113.6 523.5 113.3 522.9 112.6C522.8 112.5 522.8 112.4 522.7 112.3C522.2 111.7 522.1 111 522.4 110.3C523 108.8 523.2 107.2 523.2 105.9C523.2 104.8 521.8 104.3 521.1 105.1C519.3 107.1 517.1 108.8 514.6 110.1C511.2 111.9 507.6 112.8 503.8 112.8C498.6 112.8 493.9 111.5 489.6 108.9C485.3 106.3 481.9 102.7 479.5 98.1C477.1 93.5 475.8 88.4001 475.8 82.7001C475.8 76.1001 477.3 70.2 480.3 65C483.3 59.8 487.4 55.8 492.6 52.9C497.9 50 503.9 48.6 510.7 48.6C513.5 48.6 516.3 49.0001 519.2 49.7001L521.1 50.1C521.5 50.1 521.7 49.6 521.7 48.5V32.3C521.7 28.9 521.3 26.4 520.6 24.8C519.8 23.3 518.4 22.3 516.4 21.9C515.3 21.6 514.7 20.8 514.7 19.6C514.7 18.4 515.2 17.6 516.3 17.4C519.7 16.7 523.5 15.7 527.6 14.5C531.7 13.2 535 12 537.7 10.8C539.8 9.80003 541 9.40003 541.4 9.40003C541.9 9.40003 542.3 9.60003 542.6 9.90003C542.9 10.2 543.1 10.6 543.1 11.1C543 11.5 542.9 12.5 542.7 14C542.6 15.6 542.4 17.2 542.3 19L541.4 93.1C541.4 96.5 541.6 98.8 542.1 100.1C542.6 101.4 543.4 102.1 544.7 102.1L550.3 101.7H550.9V101.9ZM581.3 67.8C583.6 67.8 585.3 67.8001 586.4 67.7001C587.5 67.6001 588.5 67.4 589.3 67.1C589.7 67 590 66.5001 590.4 65.7001C590.7 64.8001 590.9 63.9 590.9 62.8C590.9 60.3 590.1 58.3001 588.5 56.7001C586.9 55.1001 584.9 54.3 582.4 54.3C579.5 54.3 576.9 55.5 574.6 57.9C572.3 60.3 571.2 62.9001 571.4 65.7001C571.4 66.4001 571.6 66.9 572 67.3C572.4 67.7 572.9 67.9 573.6 67.9H581.3V67.8ZM565.6 108.7C561.4 105.9 558.2 102.1 555.8 97.4C553.4 92.6 552.2 87.3 552.2 81.5C552.2 75.5 553.6 69.9 556.5 64.8C559.4 59.7 563.3 55.7001 568.2 52.7001C573.1 49.7001 578.5 48.3 584.4 48.3C588.4 48.3 592.1 49.2 595.5 51C598.9 52.8 601.6 55.3 603.6 58.3C605.6 61.4 606.6 64.8 606.6 68.5C606.6 70.4 606.2 71.8001 605.5 72.7001C604.8 73.6001 603.7 74.1 602.1 74.1H573.7C572.4 74.1 571.4 74.5001 570.8 75.2001C570.2 76.0001 569.9 77.3 569.9 79.1C569.9 84.4 571.6 88.8 574.9 92.3C578.2 95.8 582.6 97.6 587.8 97.6C590.4 97.6 592.8 97.1 595.1 96.1C597.4 95.1 599.9 93.6001 602.6 91.7001C603.5 91.0001 604.1 90.7001 604.6 90.7001C605.7 90.7001 606.2 91.3 606.2 92.6C606.2 93.5 605.9 94.8 605.3 96.5C603.9 100.8 600.8 104.6 596.2 107.9C591.6 111.2 586 112.9 579.5 112.9C574.4 112.8 569.8 111.5 565.6 108.7ZM607.7 110.6C607.1 110.2 606.8 109.7 606.8 109.1C606.8 107.9 607.9 106.9 610.1 106.1C611.9 105.5 613.3 104.9 614.1 104.2C615 103.5 615.4 102.3 615.4 100.6V67.3C615.4 62.8 614 60.3 611.1 59.8C610.7 59.7 610.4 59.4 610 58.9C609.7 58.4 609.5 57.8 609.5 57C609.5 55.6 610 54.7 610.9 54.4C614.5 53.5 618.5 52.5001 622.7 51.2001C626.9 49.9001 630.4 48.6 633 47.3C633.2 47.2 633.6 47 634.3 46.6C635 46.2 635.5 46 635.9 46C636.9 46 637.3 46.6 637.3 47.9L637 50.9C636.7 54.1 636.6 55.7 636.6 55.9C636.6 57.1 636.7 57.9 636.9 58.1C640.5 54.8 643.9 52.3 647.1 50.6C650.3 49 653.9 48.2001 658 48.2001C663.3 48.2001 667.6 50.1 670.9 53.8C674.2 57.5 675.9 62.6 675.9 68.9V100.8C675.9 102.5 676.3 103.7 677.1 104.3C677.9 104.9 679.3 105.5 681.2 106.1C683.1 106.8 684.1 107.8 684.1 109.1C684.1 109.7 683.8 110.2 683.3 110.6C682.8 111 682.2 111.2 681.6 111.2C678.6 111.2 675.8 111.1 673 110.8C669.6 110.6 667.1 110.5 665.5 110.5C663.9 110.5 661.4 110.6 658.2 110.8C655.5 111.1 652.7 111.2 649.7 111.2C649.1 111.2 648.6 111 648.1 110.6C647.6 110.2 647.4 109.7 647.4 109.1C647.4 107.8 648.3 106.8 650.1 106.1C651.9 105.5 653.2 104.9 653.9 104.3C654.6 103.7 655 102.5 655 100.8V72.5C655 69 654.2 66.2001 652.7 64.2001C651.2 62.2001 649.2 61.2001 646.7 61.2001C645 61.2001 643.4 61.5 642 62C640.6 62.5 639 63.4 637.3 64.5C636.5 65 636.2 65.8 636.2 67.1V100.8C636.2 102.5 636.6 103.7 637.3 104.2C638 104.8 639.3 105.4 641.1 106.1C642.9 106.8 643.8 107.8 643.8 109.1C643.8 109.7 643.6 110.2 643.1 110.6C642.6 111 642.1 111.2 641.5 111.2C638.6 111.2 635.9 111.1 633.3 110.8C630 110.6 627.7 110.5 626.1 110.5C624.6 110.5 622 110.6 618.3 110.8C615.4 111.1 612.5 111.2 609.5 111.2C609 111.3 608.3 111.1 607.7 110.6ZM699 108.7C694.8 105.9 691.6 102.1 689.2 97.4C686.8 92.6 685.6 87.3 685.6 81.5C685.6 75.5 687 69.9 689.9 64.8C692.8 59.7 696.7 55.7001 701.7 52.7001C706.7 49.7001 712.1 48.3 718.1 48.3C722 48.3 725.8 49 729.3 50.5C732.8 51.9 735.9 54.0001 738.3 56.7001C739.1 57.7001 739.4 58.5 739.4 59.3C739.4 60.2 738.5 61.5 736.7 63.4C734.9 65.3 733.4 66.2001 732.4 66.2001C731.5 66.2001 730.7 66 730 65.6C729.3 65.2 728.3 64.5 727.2 63.5C724.6 61.3 722.1 59.6 719.5 58.3C717 57 714.7 56.4 712.8 56.4C709.4 56.4 706.8 57.8 705.3 60.6C703.7 63.4 702.9 68.1001 702.9 74.7001C702.9 81.8001 704.4 87.3001 707.5 91.2001C710.6 95.1001 715 97.1 720.9 97.1C723.6 97.1 726 96.7 728.1 95.8C730.3 94.9 732.6 93.6 735.1 91.6C735.3 91.4 735.6 91.1001 736.2 90.7001C736.7 90.3001 737.2 90.1 737.7 90.1C738.8 90.1 739.4 90.9 739.4 92.4C739.4 93.6 739.1 94.9 738.5 96.3C737.6 98.5 735.9 100.9 733.4 103.5C730.9 106.1 727.8 108.3 724.1 110.2C720.5 112.1 716.7 113 712.8 113C707.8 112.8 703.2 111.5 699 108.7ZM773.3 67.8C775.6 67.8 777.3 67.8001 778.4 67.7001C779.5 67.6001 780.5 67.4 781.3 67.1C781.7 67 782 66.5001 782.4 65.7001C782.7 64.8001 782.9 63.9 782.9 62.8C782.9 60.3 782.1 58.3001 780.5 56.7001C778.9 55.1001 776.9 54.3 774.4 54.3C771.5 54.3 768.9 55.5 766.6 57.9C764.3 60.3 763.2 62.9001 763.4 65.7001C763.4 66.4001 763.6 66.9 764 67.3C764.4 67.7 764.9 67.9 765.6 67.9H773.3V67.8ZM757.6 108.7C753.4 105.9 750.2 102.1 747.8 97.4C745.4 92.6 744.2 87.3 744.2 81.5C744.2 75.5 745.6 69.9 748.5 64.8C751.4 59.7 755.3 55.7001 760.2 52.7001C765.1 49.7001 770.5 48.3 776.4 48.3C780.4 48.3 784.1 49.2 787.5 51C790.9 52.8 793.6 55.3 795.6 58.3C797.6 61.4 798.6 64.8 798.6 68.5C798.6 70.4 798.2 71.8001 797.5 72.7001C796.8 73.6001 795.7 74.1 794.1 74.1H765.7C764.4 74.1 763.4 74.5001 762.8 75.2001C762.2 76.0001 761.9 77.3 761.9 79.1C761.9 84.4 763.6 88.8 766.9 92.3C770.2 95.8 774.6 97.6 779.8 97.6C782.4 97.6 784.8 97.1 787.1 96.1C789.4 95.1 791.9 93.6001 794.6 91.7001C795.5 91.0001 796.1 90.7001 796.6 90.7001C797.7 90.7001 798.2 91.3 798.2 92.6C798.2 93.5 797.9 94.8 797.3 96.5C795.9 100.8 792.8 104.6 788.2 107.9C783.6 111.2 778 112.9 771.5 112.9C766.4 112.8 761.8 111.5 757.6 108.7ZM13.2 29.3C14.7 32.7 13.2001 36.7001 9.90005 38.2001C6.60005 39.7001 2.50005 38.2 1.00005 34.9C-0.499949 31.5 1.00005 27.5 4.30005 26C7.60005 24.5 11.7 26 13.2 29.3ZM19.5001 10.7001C21.0001 14.1001 19.5 18.1 16.2 19.6C12.9 21.1 8.80005 19.6 7.30005 16.3C5.80005 12.9 7.30005 8.90003 10.6 7.40003C14.0001 5.80003 18.0001 7.30005 19.5001 10.7001ZM37.2001 4.00004C38.7001 7.40004 37.2 11.4 33.9 12.9C30.6 14.4 26.5001 12.9 25.0001 9.60004C23.5001 6.20004 25.0001 2.20005 28.3001 0.700051C31.7001 -0.899949 35.7001 0.600038 37.2001 4.00004ZM56.6001 7.00004C58.1001 10.4 56.6001 14.4 53.3001 15.9C49.9001 17.4 45.9 15.9 44.4 12.6C42.9 9.20004 44.4001 5.20005 47.7001 3.70005C51.1001 2.10005 55.1001 3.60004 56.6001 7.00004Z M175.1 101.5C175.2 101.5 175.4 101.4 175.5 101.4C178.1 100.5 179.8 98 179.8 95.2L179.7 65.7C179.7 64.4 179.1 62.9 177.8 61.3C176.6 59.7 175 58.4 173.1 57.4C171.2 56.3 169.5 55.8 168 55.8C164.6 55.8 161.7 58 159.5 62.3C157.2 66.6 156.1 72.1 156.1 78.8C156.1 85.8 157.4 91.5 160 96C162.6 100.4 165.9 102.7 169.9 102.7C171.3 102.5 173.1 102.2 175.1 101.5ZM209.1 101.9C209.6 101.9 209.9 102 210.1 102.2C210.3 102.4 210.4 102.8 210.4 103.5C210.4 104.3 210.1 105.1 209.5 106C208.9 106.9 208.3 107.4 207.8 107.4C199.6 108.4 192 110.1 185 112.7C183.9 113.3 183 113.6 182.4 113.6C182.1 113.6 181.7 113.3 181.1 112.6C181 112.5 181 112.4 180.9 112.3C180.4 111.7 180.3 111 180.6 110.3C181.2 108.8 181.4 107.2 181.4 105.9C181.4 104.8 180 104.3 179.3 105.1C177.5 107.1 175.3 108.8 172.8 110.1C169.4 111.9 165.8 112.8 162 112.8C156.8 112.8 152.1 111.5 147.8 108.9C143.5 106.3 140.1 102.7 137.7 98.1C135.3 93.5 134 88.4 134 82.7C134 76.1 135.5 70.2 138.5 65C141.5 59.8 145.6 55.8 150.8 52.9C156.1 50 162.1 48.6 168.9 48.6C171.7 48.6 174.5 49 177.4 49.7L179.3 50.1C179.7 50.1 179.9 49.6 179.9 48.5V32.3C179.9 28.9 179.5 26.4 178.8 24.8C178 23.3 176.6 22.3 174.6 21.9C173.5 21.6 172.9 20.8 172.9 19.6C172.9 18.4 173.4 17.6 174.5 17.4C177.9 16.7 181.7 15.7 185.8 14.5C189.9 13.2 193.2 12 195.9 10.8C198 9.80002 199.2 9.40002 199.6 9.40002C200.1 9.40002 200.5 9.60002 200.8 9.90002C201.1 10.2 201.3 10.6 201.3 11.1C201.2 11.5 201.1 12.5 200.9 14C200.8 15.6 200.6 17.2 200.5 19L199.6 93.1C199.6 96.5 199.8 98.8 200.3 100.1C200.8 101.4 201.6 102.1 202.9 102.1L208.5 101.7H209.1V101.9ZM579.2 146H583.3C588.8 146 589.3 149.4 589.3 150.9C589.3 152.4 588.7 155.8 583.3 155.8H579.2V146ZM583.3 141.4H574.3V172.3H579.2V160.3H583.3C590.3 160.3 594.3 156.9 594.3 150.8C594.3 144.7 590.3 141.4 583.3 141.4ZM598.7 141.4V172.3H615.6V167.8H603.6V159H615.6V154.4H603.6V146H615.6V141.4H598.7ZM619.1 141.4V146H624.9V172.3H629.9V146H635.7V141.4H619.1ZM663.4 161.3H677.5C674.8 167.9 669.1 168.4 667.4 168.4C662.1 168.4 656.3 163.8 656.3 157C656.3 150.6 661.2 145.4 667.3 145.4C671.7 145.4 674.2 148.2 675.4 149.5L675.5 149.6H681.2L681 149.2C678.2 144 672.9 140.8 667.1 140.8C658.2 140.8 651.3 147.9 651.3 156.9C651.3 165.7 658.4 172.9 667.1 172.9C674.7 172.9 682.9 167.3 683.1 157V156.8H663.4V161.3ZM693 146H697.4C702.2 146 703.9 148.9 703.9 151.4C703.9 155.1 701.1 157.1 695.8 157.1H693V146ZM708.9 151.4C708.9 148.5 707.8 145.7 706 144C704.1 142.2 701.5 141.4 697.7 141.4H688V172.3H692.9V158.6L702.6 172.2L702.7 172.3H708.9L700.4 160.9C702.2 160.8 708.9 159.6 708.9 151.4ZM728.9 168.3C721.2 168.3 717.8 161.6 717.8 156.8C717.8 152 721.3 145.3 728.9 145.3C736.5 145.3 740 152.2 740 157C740 161.7 736.6 168.3 728.9 168.3ZM728.9 140.8C720 140.8 712.8 148 712.8 156.8C712.8 165.6 720 172.8 728.9 172.8C737.8 172.8 745 165.6 745 156.8C745 147.9 737.9 140.8 728.9 140.8ZM766.4 162.1C766.4 168 761.8 168.3 760.9 168.3C760 168.3 755.4 168 755.4 162.1V141.4H750.5V162.2C750.5 165.5 751.5 168.2 753.7 170.2C755.8 171.9 758.3 172.8 761 172.8C763.7 172.8 766.2 171.9 768.3 170.1C770.4 168.1 771.5 165.5 771.5 162.1V141.3H766.6V162.1H766.4ZM783 146H787.1C792.6 146 793.1 149.4 793.1 150.9C793.1 152.4 792.5 155.8 787.1 155.8H783V146ZM787.1 141.4H778.1V172.3H783V160.3H787.1C794.1 160.3 798.1 156.9 798.1 150.8C798.1 144.7 794 141.4 787.1 141.4Z"
		fill="#4AC9BE" />
</svg>