<?xml version="1.0" ?>
<svg aria-label="Independence Pet Group, Inc." fill="none" focusable="false" viewBox="0 0 275 206"
  xmlns="http://www.w3.org/2000/svg">
  <title>Independence Pet Group Logo (IPG)</title>
  <desc>IPG Brand Identity</desc>
  <g fill="gold">
    <path d="M56 19a7 7 0 1 0 0-14 7 7 0 0 0 0 14Z" />
    <path d="M36 14a7 7 0 1 0 0-14 7 7 0 0 0 0 14Z" />
    <path d="M16 21a7 7 0 100-14 7 7 0 000 14Z" />
    <path d="M7 41a7 7 0 10.6-14 7 7 0 000 14Z" />
    <path d="M25 48c-3-4-5-7-5-12s2-9 5-12 7-5 12-5 9 2 12 5 5 7 5 12-2 9-5 12-7 5-12 5-9-2-12-5Z" />
    <path
      d="m10 148-1-2c0-2 1-3 3-4l7-2c2-1 2-3 2-5V93c0-5 0-8-2-10l-6-3-2-1v-5l2-1 16-5c5-1 10-4 16-7l5-1 2 1v2l-1 8-1 21v43l2 4 7 3 3 2 1 2c0 2-1 3-3 3a279 279 0 0 1-25-1 208 208 0 0 0-23 1l-2-1Z" />
    <path
      d="m64 198-2-2c0-2 2-3 5-4l6-3 1-5V92l-2-7c-2-2-4-4-6-4l-2-1-1-3c0-2 1-3 3-3a156 156 0 0 0 29-10l2-1 2-1c2 0 2 1 2 3v7l-1 4 1 2 13-9c6-3 12-5 18-5 7 0 12 2 18 6 5 4 9 8 11 14 3 6 4 13 4 19a52 52 0 0 1-23 42c-7 5-14 7-23 7l-7-1-9-2v33c0 3 0 5 2 6 1 2 4 3 8 4 3 1 4 2 4 4l-1 2-2 1-13-1a230 230 0 0 0-37 0Zm61-59c3-2 5-5 7-10s3-11 3-19c0-12-2-20-6-25-3-4-8-6-12-6l-10 3c-3 2-4 4-4 6l-1 33a28 28 0 0 0 7 18l9 3 7-3Z" />
    <path
      d="M269 78c-8 6-14 5-17 5l-1 1v7c0 8-2 24-20 34-7 3-12 5-19 5l-14-2h-1l-3 4c0 2 2 3 6 4l22 3c15 1 26 3 32 7 7 3 10 7 10 14s-3 14-8 21a62 62 0 0 1-76 18c-8-4-12-9-12-16 0-9 8-17 12-19l6-5v-2c-8-4-12-7-12-14 0-9 11-14 15-18v-2c-5-3-8-7-11-11s-4-10-4-15c0-7 2-13 5-18 4-5 9-9 16-12 6-3 13-4 20-4 14 0 27 4 31 6 10 4 18 3 21 2s5-2 6-4c1-1 3 0 2 1-1 4-3 8-6 10Zm-41 88-15-2a97 97 0 0 1-16-2c-6 4-10 9-10 14 0 6 2 10 7 14 4 3 13 5 20 5 5 0 13-3 17-6 7-6 8-11 8-14s-3-7-11-9Zm-6-52c3-4 4-10 4-18s-1-14-4-18c-2-4-5-7-9-7s-7 2-10 7c-2 4-3 10-3 17s1 14 4 19c2 5 5 7 9 7s7-2 9-7Z" />
  </g>
</svg>